:FULLY-SPECIFIED
:FORCE-ALL-JOINTS-BE-3DOF
:DEGREES
306
root 1.13069 15.3724 -35.5447 41.0413 81.8925 43.4028
lfemur -5.00727 2.84268 -18.7427
ltibia 50.0714 -0 0
lfoot -27.2791 26.2071 -0.0789547
ltoes -8.68752 0 0
rfemur -51.7471 -5.27295 11.2161
rtibia 56.7111 -0 0
rfoot -0.595798 9.17359 0.11659
rtoes -10.693 0 0
lowerback 17.6082 -0.189582 -10.1432
upperback -0.649651 -2.1339 1.88708
thorax -10.1712 -0.394871 8.4854
lowerneck -4.79889 -2.20333 -3.65721
upperneck 5.86557 -2.77595 1.67631
head 2.79822 -1.40191 1.07083
lclavicle -6.63627e-15 3.24578e-16 3.51177e-32
lhumerus 5.33002 -46.4391 89.2521
lradius 51.5562 -0 0
lwrist -16.8308 0 0
lhand -25.6987 40.8889 0.0146947
lfingers 7.12502 -0 0
lthumb 0.836669 70.8659 0.0142036
rclavicle -6.63627e-15 3.24578e-16 3.51177e-32
rhumerus 2.60969 26.6767 -67.4277
rradius 114.502 -0 0
rwrist -41.5513 0 0
rhand 83.7214 -12.0286 0.604626
rfingers 7.12502 -0 0
rthumb 57.7959 -89.6563 -0.822711
307
root 1.14409 15.3677 -35.5423 42.4412 82.0876 44.8253
lfemur -4.96631 2.86877 -18.7773
ltibia 50.1122 -0 0
lfoot -27.3099 26.2707 -0.0739299
ltoes -8.63024 0 0
rfemur -51.8538 -5.29353 11.21
rtibia 56.7647 -0 0
rfoot -0.522037 9.21261 0.109169
rtoes -10.6592 0 0
lowerback 17.6435 -0.196065 -10.1708
upperback -0.641567 -2.15181 1.88871
thorax -10.1806 -0.401406 8.50684
lowerneck -4.7991 -2.1973 -3.64679
upperneck 5.86904 -2.7675 1.66067
head 2.79825 -1.39803 1.06403
lclavicle -6.66431e-15 3.55949e-16 3.2884e-32
lhumerus 5.47256 -46.5698 89.1948
lradius 51.6408 -0 0
lwrist -16.7856 0 0
lhand -25.6885 40.9246 0.0137598
lfingers 7.12502 -0 0
lthumb 0.846592 70.9017 0.0133
rclavicle -6.66431e-15 3.55949e-16 3.2884e-32
rhumerus 2.74431 26.7317 -67.3539
rradius 114.769 -0 0
rwrist -41.7001 0 0
rhand 84.0734 -11.9975 0.565603
rfingers 7.12502 -0 0
rthumb 57.9727 -89.7618 -0.770118
308
root 1.15749 15.3629 -35.5399 43.9114 82.2776 46.3182
lfemur -4.92536 2.89489 -18.812
ltibia 50.153 -0 0
lfoot -27.3407 26.3342 -0.068871
ltoes -8.57296 0 0
rfemur -51.9605 -5.31412 11.2039
rtibia 56.8183 -0 0
rfoot -0.448281 9.25162 0.101697
rtoes -10.6253 0 0
lowerback 17.6788 -0.202531 -10.1983
upperback -0.633483 -2.16972 1.89034
thorax -10.19 -0.407938 8.52828
lowerneck -4.79932 -2.19126 -3.63636
upperneck 5.87251 -2.75904 1.64504
head 2.79827 -1.39415 1.05722
lclavicle -6.69235e-15 3.8732e-16 3.06349e-32
lhumerus 5.61562 -46.7005 89.137
lradius 51.7255 -0 0
lwrist -16.7404 0 0
lhand -25.6782 40.9603 0.0128186
lfingers 7.12502 -0 0
lthumb 0.856514 70.9374 0.0123903
rclavicle -6.69235e-15 3.8732e-16 3.06349e-32
rhumerus 2.87908 26.7865 -67.2799
rradius 115.036 -0 0
rwrist -41.8489 0 0
rhand 84.4254 -11.9667 0.52639
rfingers 7.12502 -0 0
rthumb 58.1493 -89.8671 -0.7172
309
root 1.17089 15.3581 -35.5375 45.4551 82.4622 47.8845
lfemur -4.88443 2.92103 -18.8466
ltibia 50.1937 -0 0
lfoot -27.3715 26.3978 -0.0637779
ltoes -8.51569 0 0
rfemur -52.0672 -5.33472 11.1978
rtibia 56.8719 -0 0
rfoot -0.37453 9.29062 0.0941749
rtoes -10.5914 0 0
lowerback 17.7141 -0.20898 -10.2259
upperback -0.6254 -2.18763 1.89196
thorax -10.1993 -0.414466 8.54972
lowerneck -4.79953 -2.18523 -3.62594
upperneck 5.87597 -2.75058 1.62941
head 2.79829 -1.39028 1.05041
lclavicle -6.72039e-15 4.1869e-16 2.83705e-32
lhumerus 5.75923 -46.831 89.0785
lradius 51.8101 -0 0
lwrist -16.6951 0 0
lhand -25.6679 40.996 0.011871
lfingers 7.12502 -0 0
lthumb 0.866436 70.9732 0.0114743
rclavicle -6.72039e-15 4.1869e-16 2.83705e-32
rhumerus 3.01399 26.8412 -67.2058
rradius 115.304 -0 0
rwrist -41.9978 0 0
rhand 84.7774 -11.9361 0.486988
rfingers 7.12502 -0 0
rthumb 58.3259 -89.9723 -0.663958
310
root 1.18429 15.3533 -35.5351 47.0755 82.641 49.5276
lfemur -4.84352 2.9472 -18.8812
ltibia 50.2345 -0 0
lfoot -27.4023 26.4613 -0.0586507
ltoes -8.45841 0 0
rfemur -52.1739 -5.35534 11.1917
rtibia 56.9255 -0 0
rfoot -0.300785 9.32961 0.0866027
rtoes -10.5575 0 0
lowerback 17.7493 -0.215413 -10.2534
upperback -0.617318 -2.20554 1.89358
thorax -10.2087 -0.42099 8.57116
lowerneck -4.79974 -2.1792 -3.61551
upperneck 5.87943 -2.74213 1.61378
head 2.79832 -1.3864 1.04361
lclavicle -6.74843e-15 4.50061e-16 2.60907e-32
lhumerus 5.90338 -46.9614 89.0194
lradius 51.8948 -0 0
lwrist -16.6499 0 0
lhand -25.6577 41.0318 0.010917
lfingers 7.12502 -0 0
lthumb 0.876357 71.0089 0.0105522
rclavicle -6.74843e-15 4.50061e-16 2.60907e-32
rhumerus 3.14904 26.8958 -67.1314
rradius 115.571 -0 0
rwrist -42.1466 0 0
rhand 85.1294 -11.9058 0.447398
rfingers 7.12502 -0 0
rthumb 58.5024 -90.0773 -0.610392
311
root 1.1977 15.3486 -35.5327 48.7756 82.8135 51.2503
lfemur -4.80261 2.97339 -18.9158
ltibia 50.2753 -0 0
lfoot -27.4331 26.5248 -0.0534893
ltoes -8.40113 0 0
rfemur -52.2806 -5.37596 11.1857
rtibia 56.9791 -0 0
rfoot -0.227044 9.3686 0.0789803
rtoes -10.5236 0 0
lowerback 17.7846 -0.221828 -10.281
upperback -0.609236 -2.22345 1.8952
thorax -10.2181 -0.427511 8.59261
lowerneck -4.79995 -2.17316 -3.60509
upperneck 5.88289 -2.73367 1.59815
head 2.79834 -1.38252 1.0368
lclavicle -6.77647e-15 4.81432e-16 2.37956e-32
lhumerus 6.04808 -47.0917 88.9597
lradius 51.9794 -0 0
lwrist -16.6047 0 0
lhand -25.6474 41.0675 0.00995652
lfingers 7.12502 -0 0
lthumb 0.886278 71.0447 0.00962381
rclavicle -6.77647e-15 4.81432e-16 2.37956e-32
rhumerus 3.28424 26.9502 -67.0569
rradius 115.838 -0 0
rwrist -42.2954 0 0
rhand 85.4813 -11.8757 0.407624
rfingers 7.12502 -0 0
rthumb 58.6788 -90.1821 -0.556503
312
root 1.2111 15.3438 -35.5303 50.5581 82.9794 53.0554
lfemur -4.76173 2.9996 -18.9503
ltibia 50.3161 -0 0
lfoot -27.4638 26.5884 -0.0482938
ltoes -8.34385 0 0
rfemur -52.3873 -5.3966 11.1798
rtibia 57.0327 -0 0
rfoot -0.153309 9.40757 0.0713077
rtoes -10.4897 0 0
lowerback 17.8199 -0.228226 -10.3086
upperback -0.601154 -2.24136 1.89681
thorax -10.2274 -0.434029 8.61405
lowerneck -4.80016 -2.16713 -3.59466
upperneck 5.88635 -2.72521 1.58253
head 2.79836 -1.37864 1.03
lclavicle -6.80451e-15 5.12803e-16 2.14851e-32
lhumerus 6.19334 -47.2219 88.8993
lradius 52.0641 -0 0
lwrist -16.5594 0 0
lhand -25.6371 41.1032 0.00898968
lfingers 7.12502 -0 0
lthumb 0.896198 71.0804 0.00868928
rclavicle -6.80451e-15 5.12803e-16 2.14851e-32
rhumerus 3.41959 27.0044 -66.9822
rradius 116.105 -0 0
rwrist -42.4442 0 0
rhand 85.8332 -11.8458 0.367665
rfingers 7.12502 -0 0
rthumb 58.855 -90.2868 -0.502291
313
root 1.2245 15.339 -35.5279 52.4254 83.138 54.9453
lfemur -4.72086 3.02584 -18.9849
ltibia 50.3569 -0 0
lfoot -27.4946 26.6519 -0.0430642
ltoes -8.28657 0 0
rfemur -52.4941 -5.41724 11.1738
rtibia 57.0863 -0 0
rfoot -0.0795792 9.44653 0.063585
rtoes -10.4559 0 0
lowerback 17.8552 -0.234607 -10.3361
upperback -0.593072 -2.25927 1.89842
thorax -10.2368 -0.440543 8.6355
lowerneck -4.80037 -2.16109 -3.58424
upperneck 5.88981 -2.71675 1.5669
head 2.79838 -1.37476 1.02319
lclavicle -6.83255e-15 5.44173e-16 1.91593e-32
lhumerus 6.33915 -47.352 88.8383
lradius 52.1488 -0 0
lwrist -16.5142 0 0
lhand -25.6268 41.1389 0.00801644
lfingers 7.12502 -0 0
lthumb 0.906117 71.1162 0.00774855
rclavicle -6.83255e-15 5.44173e-16 1.91593e-32
rhumerus 3.55508 27.0585 -66.9073
rradius 116.373 -0 0
rwrist -42.5931 0 0
rhand 86.1851 -11.8162 0.327523
rfingers 7.12502 -0 0
rthumb 59.0312 -90.3913 -0.447758
314
root 1.2379 15.3342 -35.5255 54.3792 83.289 56.9218
lfemur -4.68 3.0521 -19.0194
ltibia 50.3976 -0 0
lfoot -27.5254 26.7155 -0.0378005
ltoes -8.22929 0 0
rfemur -52.6008 -5.4379 11.1679
rtibia 57.1398 -0 0
rfoot -0.00585447 9.48548 0.0558121
rtoes -10.422 0 0
lowerback 17.8905 -0.240971 -10.3637
upperback -0.584991 -2.27718 1.90003
thorax -10.2462 -0.447053 8.65695
lowerneck -4.80058 -2.15506 -3.57381
upperneck 5.89326 -2.70829 1.55127
head 2.7984 -1.37089 1.01639
lclavicle -6.86059e-15 5.75544e-16 1.68181e-32
lhumerus 6.48553 -47.4819 88.7767
lradius 52.2334 -0 0
lwrist -16.469 0 0
lhand -25.6166 41.1747 0.00703679
lfingers 7.12502 -0 0
lthumb 0.916036 71.1519 0.00680164
rclavicle -6.86059e-15 5.75544e-16 1.68181e-32
rhumerus 3.69071 27.1124 -66.8322
rradius 116.64 -0 0
rwrist -42.7419 0 0
rhand 86.537 -11.7868 0.2872
rfingers 7.12502 -0 0
rthumb 59.2073 -90.4956 -0.392904
315
root 1.2513 15.3295 -35.5231 56.4209 83.4317 58.9861
lfemur -4.63916 3.07839 -19.0539
ltibia 50.4384 -0 0
lfoot -27.5561 26.779 -0.0325027
ltoes -8.17201 0 0
rfemur -52.7075 -5.45857 11.1621
rtibia 57.1934 -0 0
rfoot 0.0678649 9.52443 0.0479892
rtoes -10.3881 0 0
lowerback 17.9258 -0.247319 -10.3913
upperback -0.576911 -2.29509 1.90164
thorax -10.2556 -0.45356 8.6784
lowerneck -4.80078 -2.14903 -3.56339
upperneck 5.89671 -2.69982 1.53565
head 2.79842 -1.36701 1.00958
lclavicle -6.88863e-15 6.06915e-16 1.44616e-32
lhumerus 6.63248 -47.6118 88.7145
lradius 52.3181 -0 0
lwrist -16.4238 0 0
lhand -25.6063 41.2104 0.00605074
lfingers 7.12502 -0 0
lthumb 0.925954 71.1877 0.00584854
rclavicle -6.88863e-15 6.06915e-16 1.44616e-32
rhumerus 3.82649 27.1661 -66.757
rradius 116.907 -0 0
rwrist -42.8907 0 0
rhand 86.8888 -11.7577 0.246698
rfingers 7.12502 -0 0
rthumb 59.3832 -90.5998 -0.33773
316
root 1.2647 15.3247 -35.5207 58.5507 83.5656 61.1386
lfemur -4.59833 3.10471 -19.0884
ltibia 50.4792 -0 0
lfoot -27.5869 26.8425 -0.0271707
ltoes -8.11473 0 0
rfemur -52.8142 -5.47925 11.1563
rtibia 57.247 -0 0
rfoot 0.141579 9.56336 0.0401161
rtoes -10.3542 0 0
lowerback 17.9611 -0.253649 -10.4188
upperback -0.568831 -2.313 1.90324
thorax -10.265 -0.460063 8.69985
lowerneck -4.80099 -2.14299 -3.55296
upperneck 5.90016 -2.69136 1.52002
head 2.79844 -1.36313 1.00277
lclavicle -6.91666e-15 6.38285e-16 1.20897e-32
lhumerus 6.78001 -47.7416 88.6515
lradius 52.4027 -0 0
lwrist -16.3785 0 0
lhand -25.596 41.2461 0.00505828
lfingers 7.12502 -0 0
lthumb 0.935872 71.2235 0.00488925
rclavicle -6.91666e-15 6.38285e-16 1.20897e-32
rhumerus 3.96241 27.2197 -66.6816
rradius 117.175 -0 0
rwrist -43.0396 0 0
rhand 87.2407 -11.7289 0.206018
rfingers 7.12502 -0 0
rthumb 59.5591 -90.7038 -0.282237
317
root 1.2781 15.3199 -35.5183 60.7683 83.6902 63.3787
lfemur -4.55752 3.13104 -19.1229
ltibia 50.52 -0 0
lfoot -27.6176 26.906 -0.0218047
ltoes -8.05745 0 0
rfemur -52.9209 -5.49994 11.1505
rtibia 57.3006 -0 0
rfoot 0.215288 9.60228 0.032193
rtoes -10.3203 0 0
lowerback 17.9964 -0.259962 -10.4464
upperback -0.560751 -2.33091 1.90485
thorax -10.2743 -0.466563 8.7213
lowerneck -4.80119 -2.13696 -3.54254
upperneck 5.9036 -2.6829 1.50439
head 2.79846 -1.35925 0.995969
lclavicle -6.9447e-15 6.69656e-16 9.70246e-33
lhumerus 6.92812 -47.8713 88.588
lradius 52.4874 -0 0
lwrist -16.3333 0 0
lhand -25.5858 41.2818 0.00405943
lfingers 7.12502 -0 0
lthumb 0.945789 71.2592 0.00392378
rclavicle -6.9447e-15 6.69656e-16 9.70246e-33
rhumerus 4.09848 27.2732 -66.606
rradius 117.442 -0 0
rwrist -43.1884 0 0
rhand 87.5925 -11.7002 0.165161
rfingers 7.12502 -0 0
rthumb 59.7349 -90.8076 -0.226424
